<svg id="visual" viewBox="0 0 1536 730" width="1536" height="730" xmlns="http://www.w3.org/2000/svg" xmlns:xlink="http://www.w3.org/1999/xlink" version="1.1"><rect x="0" y="0" width="1536" height="730" fill="#000000"></rect><path d="M768 0L640 0L640 32L642 32L642 63L716 63L716 95L596 95L596 127L700 127L700 159L729 159L729 190L632 190L632 222L677 222L677 254L746 254L746 286L648 286L648 317L595 317L595 349L799 349L799 381L634 381L634 413L611 413L611 444L643 444L643 476L774 476L774 508L668 508L668 540L667 540L667 571L806 571L806 603L750 603L750 635L808 635L808 667L590 667L590 698L646 698L646 730L0 730L0 698L0 698L0 667L0 667L0 635L0 635L0 603L0 603L0 571L0 571L0 540L0 540L0 508L0 508L0 476L0 476L0 444L0 444L0 413L0 413L0 381L0 381L0 349L0 349L0 317L0 317L0 286L0 286L0 254L0 254L0 222L0 222L0 190L0 190L0 159L0 159L0 127L0 127L0 95L0 95L0 63L0 63L0 32L0 32L0 0L0 0Z" fill="#1c1cf0"></path><path d="M567 0L616 0L616 32L621 32L621 63L543 63L543 95L616 95L616 127L561 127L561 159L548 159L548 190L538 190L538 222L531 222L531 254L641 254L641 286L587 286L587 317L673 317L673 349L664 349L664 381L660 381L660 413L530 413L530 444L640 444L640 476L628 476L628 508L526 508L526 540L550 540L550 571L703 571L703 603L672 603L672 635L665 635L665 667L627 667L627 698L673 698L673 730L0 730L0 698L0 698L0 667L0 667L0 635L0 635L0 603L0 603L0 571L0 571L0 540L0 540L0 508L0 508L0 476L0 476L0 444L0 444L0 413L0 413L0 381L0 381L0 349L0 349L0 317L0 317L0 286L0 286L0 254L0 254L0 222L0 222L0 190L0 190L0 159L0 159L0 127L0 127L0 95L0 95L0 63L0 63L0 32L0 32L0 0L0 0Z" fill="#061fce"></path><path d="M424 0L507 0L507 32L539 32L539 63L476 63L476 95L586 95L586 127L567 127L567 159L473 159L473 190L544 190L544 222L457 222L457 254L519 254L519 286L492 286L492 317L496 317L496 349L533 349L533 381L503 381L503 413L497 413L497 444L511 444L511 476L485 476L485 508L458 508L458 540L575 540L575 571L587 571L587 603L450 603L450 635L510 635L510 667L547 667L547 698L477 698L477 730L0 730L0 698L0 698L0 667L0 667L0 635L0 635L0 603L0 603L0 571L0 571L0 540L0 540L0 508L0 508L0 476L0 476L0 444L0 444L0 413L0 413L0 381L0 381L0 349L0 349L0 317L0 317L0 286L0 286L0 254L0 254L0 222L0 222L0 190L0 190L0 159L0 159L0 127L0 127L0 95L0 95L0 63L0 63L0 32L0 32L0 0L0 0Z" fill="#001eac"></path><path d="M424 0L429 0L429 32L357 32L357 63L342 63L342 95L486 95L486 127L494 127L494 159L449 159L449 190L350 190L350 222L446 222L446 254L351 254L351 286L387 286L387 317L473 317L473 349L461 349L461 381L433 381L433 413L442 413L442 444L361 444L361 476L463 476L463 508L447 508L447 540L421 540L421 571L367 571L367 603L386 603L386 635L465 635L465 667L477 667L477 698L429 698L429 730L0 730L0 698L0 698L0 667L0 667L0 635L0 635L0 603L0 603L0 571L0 571L0 540L0 540L0 508L0 508L0 476L0 476L0 444L0 444L0 413L0 413L0 381L0 381L0 349L0 349L0 317L0 317L0 286L0 286L0 254L0 254L0 222L0 222L0 190L0 190L0 159L0 159L0 127L0 127L0 95L0 95L0 63L0 63L0 32L0 32L0 0L0 0Z" fill="#001c8b"></path><path d="M359 0L378 0L378 32L300 32L300 63L380 63L380 95L308 95L308 127L358 127L358 159L300 159L300 190L366 190L366 222L293 222L293 254L315 254L315 286L333 286L333 317L294 317L294 349L382 349L382 381L275 381L275 413L380 413L380 444L319 444L319 476L294 476L294 508L367 508L367 540L260 540L260 571L337 571L337 603L332 603L332 635L366 635L366 667L367 667L367 698L299 698L299 730L0 730L0 698L0 698L0 667L0 667L0 635L0 635L0 603L0 603L0 571L0 571L0 540L0 540L0 508L0 508L0 476L0 476L0 444L0 444L0 413L0 413L0 381L0 381L0 349L0 349L0 317L0 317L0 286L0 286L0 254L0 254L0 222L0 222L0 190L0 190L0 159L0 159L0 127L0 127L0 95L0 95L0 63L0 63L0 32L0 32L0 0L0 0Z" fill="#00186b"></path><path d="M195 0L198 0L198 32L231 32L231 63L215 63L215 95L200 95L200 127L218 127L218 159L191 159L191 190L251 190L251 222L202 222L202 254L252 254L252 286L201 286L201 317L235 317L235 349L207 349L207 381L242 381L242 413L257 413L257 444L213 444L213 476L245 476L245 508L224 508L224 540L200 540L200 571L250 571L250 603L231 603L231 635L277 635L277 667L231 667L231 698L270 698L270 730L0 730L0 698L0 698L0 667L0 667L0 635L0 635L0 603L0 603L0 571L0 571L0 540L0 540L0 508L0 508L0 476L0 476L0 444L0 444L0 413L0 413L0 381L0 381L0 349L0 349L0 317L0 317L0 286L0 286L0 254L0 254L0 222L0 222L0 190L0 190L0 159L0 159L0 127L0 127L0 95L0 95L0 63L0 63L0 32L0 32L0 0L0 0Z" fill="#00114b"></path><path d="M119 0L129 0L129 32L128 32L128 63L119 63L119 95L118 95L118 127L167 127L167 159L153 159L153 190L154 190L154 222L113 222L113 254L98 254L98 286L173 286L173 317L136 317L136 349L136 349L136 381L144 381L144 413L117 413L117 444L115 444L115 476L166 476L166 508L167 508L167 540L158 540L158 571L172 571L172 603L101 603L101 635L105 635L105 667L100 667L100 698L147 698L147 730L0 730L0 698L0 698L0 667L0 667L0 635L0 635L0 603L0 603L0 571L0 571L0 540L0 540L0 508L0 508L0 476L0 476L0 444L0 444L0 413L0 413L0 381L0 381L0 349L0 349L0 317L0 317L0 286L0 286L0 254L0 254L0 222L0 222L0 190L0 190L0 159L0 159L0 127L0 127L0 95L0 95L0 63L0 63L0 32L0 32L0 0L0 0Z" fill="#04042d"></path></svg>